<svg xmlns="http://www.w3.org/2000/svg" width="512" height="512" viewBox="0 0 512 512">
  <rect width="512" height="512" fill="#fff" rx="96" />
  <g fill="#090b2c">
    <path
      d="M172.69 282.617a10.67 10.67 0 0 0-8.16.01 10.666 10.666 0 0 0-5.754 13.946 105.33 105.33 0 0 0 57.083 56.922 105.33 105.33 0 0 0 80.616-.112 10.666 10.666 0 0 0 5.753-13.943 10.666 10.666 0 0 0-13.946-5.754 84 84 0 0 1-64.288.091 84 84 0 0 1-45.521-45.398 10.67 10.67 0 0 0-5.783-5.762m224.724-120.921a10.666 10.666 0 0 0-13.372 6.985l-67.837 216.216a10.666 10.666 0 0 0 6.984 13.372 10.666 10.666 0 0 0 13.37-6.984l67.838-216.219a10.666 10.666 0 0 0-6.982-13.37" />
    <path
      d="M223.23 113.978A10.666 10.666 0 0 0 209.876 121l-82.014 263.926a10.666 10.666 0 0 0 7.022 13.35 10.666 10.666 0 0 0 13.351-7.02l82.012-263.926a10.666 10.666 0 0 0-7.02-13.352" />
    <path
      d="M220.061 113.497a10.666 10.666 0 0 0-10.666 10.667 10.666 10.666 0 0 0 10.666 10.666H408.39a10.666 10.666 0 0 0 10.666-10.666 10.666 10.666 0 0 0-10.666-10.667z" />
    <path
      d="M179.012 113.232c-22.067-.13-36.533 17.433-36.6 34.51-.07 19.018 15.532 34.592 34.458 34.799 19.608.212 32.826-14.733 41.195-27.714 4.184-6.49 7.312-12.89 9.468-17.978a89 89 0 0 0 2.513-6.563c.303-.908.547-1.707.758-2.527.213-.818.648-.629.506-4.06a10.666 10.666 0 0 0-10.597-10.226zm-.126 21.333 26.093.15c-1.403 2.775-2.99 5.676-4.847 8.555-6.664 10.338-15.327 18.02-23.03 17.937-7.58-.083-13.386-5.894-13.357-13.383.023-5.733 3.845-13.326 15.141-13.26m-47.97 170.475c-15.983-1.427-31.432 8.596-36.332 24.417v.002c-5.802 18.73 4.744 35.664 14.796 47.39 5.026 5.862 10.265 10.69 14.526 14.21a89 89 0 0 0 5.575 4.28c.784.55 1.48 1.013 2.204 1.45s.42.8 3.746 1.642a10.666 10.666 0 0 0 12.827-7.234l12.14-39.897c6.422-21.11-6.278-39.99-22.625-44.93a34.3 34.3 0 0 0-6.854-1.33zm-4.626 21.22a13.6 13.6 0 0 1 5.31.533v-.003c5.489 1.657 11.674 7.492 8.387 18.298l-7.597 24.964c-2.259-2.136-4.587-4.485-6.814-7.087-8.006-9.337-12.895-19.835-10.615-27.194 1.683-5.43 6.168-8.986 11.33-9.51m34.716-118.02c-15.981-1.427-31.426 8.593-36.33 24.41v.006c-5.803 18.73 4.744 35.665 14.796 47.392 5.026 5.864 10.265 10.689 14.526 14.207a89 89 0 0 0 5.576 4.282c.782.549 1.478 1.013 2.202 1.45s.42.8 3.747 1.644a10.666 10.666 0 0 0 12.826-7.234l12.14-39.9c6.424-21.11-6.277-39.99-22.625-44.929a34.3 34.3 0 0 0-6.853-1.328zm-4.626 21.22a13.6 13.6 0 0 1 5.31.529c5.487 1.659 11.674 7.493 8.386 18.3l-7.597 24.962c-2.259-2.136-4.584-4.487-6.815-7.088-8.003-9.337-12.894-19.834-10.617-27.193v-.003c1.683-5.43 6.168-8.983 11.33-9.506zm82.81-4.25a10.666 10.666 0 0 0-10.666 10.667 10.666 10.666 0 0 0 10.666 10.666h81.105a10.666 10.666 0 0 0 10.666-10.666 10.666 10.666 0 0 0-10.666-10.667zm13.39-42.668a10.666 10.666 0 0 0-10.667 10.667 10.666 10.666 0 0 0 10.666 10.666h38.44a10.666 10.666 0 0 0 10.666-10.666 10.666 10.666 0 0 0-10.667-10.667z" />
    <path
      d="M138.05 377.43a10.666 10.666 0 0 0-10.667 10.667 10.666 10.666 0 0 0 10.667 10.666h188.329a10.666 10.666 0 0 0 10.666-10.666 10.666 10.666 0 0 0-10.666-10.666z" />
  </g>
</svg>